<svg id="Capa_1" data-name="Capa 1" xmlns="http://www.w3.org/2000/svg" viewBox="0 0 200 150"><defs><style>.cls-1{fill:#101010;}</style></defs><path class="cls-1" d="M48.45,96.4a20.5,20.5,0,0,1-10.64-2.69,18.87,18.87,0,0,1-7.13-7.45,22.81,22.81,0,0,1-2.58-11,23,23,0,0,1,2.55-11,18.54,18.54,0,0,1,7.13-7.45,20.66,20.66,0,0,1,10.67-2.69,20.65,20.65,0,0,1,10.71,2.69,18.66,18.66,0,0,1,7.1,7.45,23,23,0,0,1,2.54,11,23,23,0,0,1-2.54,11,18.73,18.73,0,0,1-7.1,7.45A20.65,20.65,0,0,1,48.45,96.4Zm.06-5.73a13.72,13.72,0,0,0,7.22-1.84,12.5,12.5,0,0,0,4.8-5.32,18.46,18.46,0,0,0,1.72-8.28A18.25,18.25,0,0,0,60.53,67a12.47,12.47,0,0,0-4.8-5.29,13.73,13.73,0,0,0-7.22-1.85,14.07,14.07,0,0,0-7.28,1.85A12.39,12.39,0,0,0,36.38,67a18.25,18.25,0,0,0-1.73,8.24,18.46,18.46,0,0,0,1.73,8.28,12.41,12.41,0,0,0,4.85,5.32A14.07,14.07,0,0,0,48.51,90.67Z"/><path class="cls-1" d="M73.66,95.7V53.6h6.43V95.7Z"/><polygon class="cls-1" points="140.85 66.69 132.37 95.7 125.7 95.7 119.04 73.07 112.37 95.7 105.7 95.7 97.22 66.69 103.59 66.69 109.12 88.47 115.41 66.69 122.6 66.69 128.92 88.37 134.41 66.69 140.85 66.69"/><path class="cls-1" d="M153.24,96.4a12.64,12.64,0,0,1-5.76-1.2A8.56,8.56,0,0,1,143.91,92a8.32,8.32,0,0,1-1.19-4.33,8.43,8.43,0,0,1,3.33-7.14A14.22,14.22,0,0,1,154.82,78a23,23,0,0,1,4.38.38,26.25,26.25,0,0,1,3.16.79V77.87a6.38,6.38,0,0,0-1.84-5,7.09,7.09,0,0,0-4.88-1.64,8.51,8.51,0,0,0-4,.93,4.46,4.46,0,0,0-2.22,3.28h-6.2a9.41,9.41,0,0,1,2.14-5.23,11.08,11.08,0,0,1,4.47-3.13A15.93,15.93,0,0,1,155.64,66q6.31,0,9.73,3.16a11.29,11.29,0,0,1,3.43,8.72v7.6a13.63,13.63,0,0,0,.26,3.21,1.71,1.71,0,0,0,.88,1.26,4.21,4.21,0,0,0,1.66.26h.3v5.5h-1.41a11.83,11.83,0,0,1-4.88-.88,5.08,5.08,0,0,1-2.72-3.51,11.61,11.61,0,0,1-3.8,3.63A11.09,11.09,0,0,1,153.24,96.4Zm1.29-5a6.56,6.56,0,0,0,3.8-1.08,8,8,0,0,0,2.54-2.86,10.65,10.65,0,0,0,1.2-3.83c-.86-.24-1.87-.47-3-.71a18.47,18.47,0,0,0-3.57-.35,7.29,7.29,0,0,0-4.68,1.29,4.16,4.16,0,0,0-1.57,3.39,3.69,3.69,0,0,0,1.4,3A5.93,5.93,0,0,0,154.53,91.37Z"/><path class="cls-1" d="M93.1,62.71a1.89,1.89,0,0,0-.53-.08,2.34,2.34,0,0,0-1.8-2,2,2,0,0,0-1.42.32,2,2,0,0,0-1.43-.32,2.32,2.32,0,0,0-1.81,2,1.88,1.88,0,0,0-.52.08A2.53,2.53,0,0,0,84.18,66a2.8,2.8,0,0,0,1.87,2V95.7h6.44V68a2.79,2.79,0,0,0,2-2A2.52,2.52,0,0,0,93.1,62.71Zm-6.59,2.81a.91.91,0,0,1-1.18,0,1,1,0,0,1-.35-.91,1.06,1.06,0,0,1,.37-.81.51.51,0,0,1,.33-.13,1.35,1.35,0,0,1,.92.56S87.06,65,86.51,65.52Zm.49-3a1.07,1.07,0,0,1,.5-.75.5.5,0,0,1,.34-.07c.5.06.83.69.83.69a1.09,1.09,0,0,1-.28,1.25.91.91,0,0,1-1.17-.17A1,1,0,0,1,87,62.49Zm2.67,5.3a.83.83,0,0,0-.58,0c-1.85.65-1.91-.38-1.89-.64s.16-.66.84-1.42a1.58,1.58,0,0,1,2.68,0c.68.76.82,1.15.84,1.42S91.52,68.44,89.67,67.79Zm1.85-4.35a.91.91,0,0,1-1.17.17,1.07,1.07,0,0,1-.28-1.25s.32-.63.83-.69a.5.5,0,0,1,.34.07,1.09,1.09,0,0,1,.49.75A1,1,0,0,1,91.52,63.44Zm1.79,2.14a.91.91,0,0,1-1.17-.13,1.08,1.08,0,0,1,0-1.28,1.39,1.39,0,0,1,1-.47.58.58,0,0,1,.31.16,1.06,1.06,0,0,1,.29.85A1,1,0,0,1,93.31,65.58Z"/></svg>